<svg width="1578" height="1578" viewBox="0 0 1578 1578" fill="none" xmlns="http://www.w3.org/2000/svg">
<rect width="1577.33" height="1577.33" fill="white"/>
<path d="M435.733 179.867C414.267 185.733 399.333 200.533 392.8 222.533C391.2 228 390.667 235.6 390.667 252.667V275.6L380.4 276.533C362.133 278.267 350.133 283.467 337.733 295.067C329.467 302.933 323.733 311.333 319.733 322.133L316.667 330L316.267 604C316.133 774.933 316.4 881.467 317.2 887.333C320 907.733 335.467 929.6 353.333 938.667C371.067 947.733 360.8 947.067 520 947.867C676.933 948.667 666.933 948.267 681.467 955.733C715.867 973.333 728.4 1014 710.267 1048.67C704.533 1059.47 690.933 1072.93 679.867 1078.4C658.533 1089.07 626.267 1089.2 604 1078.53C596.4 1074.93 591.067 1070.13 561.867 1040.53C529.467 1007.87 528.133 1006.67 523.2 1006.67C515.2 1006.8 510.667 1011.6 510.667 1020C510.667 1024.67 511.6 1025.73 548.667 1063.73C559.733 1074.93 568.933 1084.8 569.067 1085.47C569.467 1086.4 553.2 1086.67 521.733 1086.27C477.067 1085.73 473.467 1085.47 466.133 1082.8C453.6 1078.27 447.2 1073.33 427.2 1053.07C402.933 1028.27 396 1022.4 383.733 1016.67C369.733 1010 356 1007.73 332.133 1008.27L312.933 1008.67L309.733 1002.67C305.733 995.067 298.4 987.467 290.8 982.933C282.267 978 266.533 977.2 255.6 981.333C245.067 985.333 234.667 995.733 230.667 1006.27C221.6 1030.27 237.2 1058.13 262.533 1063.47C271.733 1065.33 282.8 1064 290.133 1060.27C297.333 1056.53 306.133 1047.33 308.933 1040.4L311.333 1034.67H334.8C359.6 1034.67 367.867 1036 377.333 1041.73C379.867 1043.2 393.067 1055.33 406.667 1068.67C431.467 1093.07 443.733 1102.67 456 1106.93C463.733 1109.73 474.933 1112 480.667 1112C483.2 1112 485.333 1112.13 485.333 1112.4C485.333 1112.53 470.133 1128.13 451.6 1147.07L417.867 1181.33L410.533 1178.53C395.867 1172.8 379.467 1177.6 366.933 1191.2C358.267 1200.8 355.467 1208.93 356.267 1221.87C358 1248.27 382.933 1266.53 409.333 1260.67C427.067 1256.8 441.333 1238.67 441.333 1219.87C441.333 1215.07 440.4 1208.27 439.2 1204.8C438 1201.33 437.2 1198.27 437.467 1198C454.533 1180.13 510.267 1125.33 514 1122.67C516.933 1120.67 522.933 1117.6 527.333 1115.87C535.333 1112.8 535.867 1112.67 594.667 1112.27L654 1111.87L620.667 1145.47C602.4 1164 566.267 1200.13 540.4 1225.87C513.467 1252.67 492.8 1274.27 492 1276.53C488.667 1285.47 494.667 1293.33 504.533 1293.33C509.867 1293.33 510.533 1292.8 542.667 1260.4C560.667 1242.13 576.4 1226.53 577.733 1225.47C579.867 1223.73 580 1226 580 1265.2V1306.67L575.067 1309.2C547.6 1323.33 542.267 1357.07 563.867 1378.8C572.667 1387.6 580.4 1390.67 593.2 1390.67C609.733 1390.67 623.2 1382.67 631.333 1367.73C634.933 1361.33 635.333 1359.47 635.333 1348C635.333 1336.4 634.933 1334.67 631.333 1328.13C626.933 1320.13 616.267 1310.13 609.733 1307.73L605.333 1306.13V1263.07C605.333 1237.47 605.867 1217.33 606.8 1213.07C607.6 1209.2 610.667 1200.93 613.6 1194.93C618.8 1184.13 620.933 1181.87 667.333 1134.93C694 1108 718 1083.33 720.667 1080C728.933 1070.13 734.8 1060.27 738.933 1048.8C742.4 1039.6 743.067 1035.47 743.733 1020.93C744.133 1009.87 743.733 1000.4 742.667 994.267C740.4 980.933 732.667 957.2 726.667 945.333C701.6 895.333 640.8 863.6 553.333 854.8C540.667 853.467 490.933 850.8 441.333 848.667C412.4 847.333 399.333 843.867 383.333 833.067C360 817.467 345.6 792.4 342.533 762.133C341.733 753.6 341.333 672.667 341.6 542.667L342 336.667L344.933 329.333C351.067 314.267 360.8 306.533 378 303.333C383.6 302.267 388.8 301.333 389.467 301.333C390.133 301.333 390.667 389.067 390.667 519.733C390.667 733.333 390.667 738.4 393.333 745.867C397.6 758.4 402.8 766.533 411.867 774.8C425.333 787.2 433.867 790.8 455.733 792.933C490.667 796.533 527.467 801.6 550.667 806.133C640.933 824 690.533 846.667 729.867 888C749.333 908.533 763.333 932.533 772.4 960.667C780.8 986.933 780.667 985.6 780.667 1054C780.667 1109.47 780.4 1117.47 778.4 1124C773.333 1140.13 768.133 1146.53 722.533 1192.67C698.533 1216.8 678.267 1238.13 677.333 1239.87C673.467 1247.47 680.133 1257.87 688.8 1257.87C693.333 1257.87 696.133 1255.33 736.933 1214.27C760.8 1190.27 780.533 1170.8 780.8 1170.93C781.2 1171.33 781.867 1321.6 781.467 1336.13C781.333 1343.47 781.333 1343.6 775.867 1346C768.133 1349.6 758.4 1360.8 754.667 1370.53C744.533 1397.87 765.6 1428 794.667 1428C811.867 1428 828.667 1416.4 834.667 1400.4C842.267 1380 832.933 1355.07 814.4 1346.27L807.333 1342.93L807.733 1293.07C807.867 1265.73 808 1243.2 808 1243.2C808 1243.07 823.733 1258.8 843.067 1278.13C878 1313.2 878.133 1313.33 883.733 1313.33C892.667 1313.33 897.333 1307.2 896 1297.33C895.867 1296.27 879.733 1279.07 860 1259.33C822.133 1221.2 815.333 1212.8 810.533 1197.47C807.867 1188.93 807.733 1186.13 807.733 1097.87C807.733 1048 808.133 1003.87 808.667 999.867C811.333 978.933 821.333 953.6 833.2 937.467C844.933 921.6 863.333 905.733 879.733 897.467C893.733 890.267 916.267 883.733 932 882C936 881.6 940.8 881.067 942.667 880.667C947.333 879.867 1030.13 876.4 1099.33 874C1145.2 872.4 1150 871.733 1163.73 865.067C1178.93 857.6 1191.2 842.267 1196.53 824.133C1198.4 817.867 1198.67 806.533 1198.67 741.2V665.6L1194.53 661.467C1189.33 656.267 1183.07 655.867 1177.73 660.533L1174 663.733L1173.33 740.267L1172.67 816.667L1168.93 824.267C1164.8 832.8 1156.93 840.533 1148.8 844C1141.73 847.2 1135.33 847.733 1088 849.333C925.733 854.933 912.533 856 886.667 866.267C847.733 881.6 818.4 907.6 800.667 942L796.4 950.4L790.933 936.133C779.333 906.4 757.2 875.467 732.267 854.533C675.867 807.333 603.2 783.467 473.333 769.2C437.733 765.333 429.067 761.2 419.733 743.733L416.667 738L416.267 486.667C416 256.933 416.133 234.8 418.133 228.4C420.933 219.6 427.067 212.267 436 207.467C445.2 202.533 454.8 202.4 488 207.333C609.333 224.933 695.867 256.667 742.133 300.4C757.467 314.8 769.467 332.667 775.067 349.333C781.867 369.333 781.6 358.933 781.467 610.4C781.467 785.2 781.867 844.933 782.933 847.467C784.8 851.467 790.4 854.667 795.733 854.667C799.867 854.667 804.933 850.8 806.533 846.267C807.067 844.667 807.733 738.267 807.733 609.867C808 411.067 808.267 374.933 809.867 367.067C814.667 344.8 823.2 327.067 837.067 311.467C865.733 279.067 906.8 262.267 973.333 255.467C999.333 252.8 1089.07 246.933 1120.27 245.733C1140.67 245.067 1144.67 245.2 1149.87 247.2C1157.6 250.133 1166.13 258.4 1170.13 267.067L1173.33 274V326.4C1173.33 359.733 1173.87 379.733 1174.67 381.467C1176.4 384.667 1182.8 388 1187.33 388C1189.47 388 1192.4 386.4 1194.8 384.133L1198.67 380.267V326.4C1198.67 267.733 1198.27 263.733 1190.93 250.133C1185.73 240.267 1174.8 229.867 1164.93 225.2C1150.67 218.533 1144.13 218.133 1105.6 220.533C1086.8 221.733 1055.73 223.6 1036.67 224.667C968.133 228.8 940.667 232.133 908.667 240.8C858.133 254.267 817.2 284.533 799.333 321.6L795.067 330.533L792.533 324.933C782.267 302 759.067 277.333 730 258C708.267 243.6 689.6 234.533 656.133 221.867C604.133 202.267 541.067 187.333 475.733 179.333C454.533 176.8 446.933 176.933 435.733 179.867ZM352.133 840.4C364.4 852.267 379.2 861.333 395.2 866.667C411.333 872 417.2 872.933 439.333 873.867C511.067 877.067 532 878.133 552.667 880.133C587.2 883.467 625.333 894.133 651.6 908C666.667 915.867 681.2 925.2 681.333 926.933C681.333 927.467 679.067 927.067 676.267 926.133C663.733 921.733 652.533 921.333 516.667 921.333C385.6 921.333 381.067 921.2 373.867 918.667C360.267 914 349.2 903.067 344.8 890C343.067 884.933 342.267 876.933 341.733 856.933C341.467 842.533 341.333 830.667 341.6 830.667C341.867 830.667 346.533 835.067 352.133 840.4ZM279.333 1005.87C291.6 1011.07 290.533 1031.47 277.733 1036.93C270.667 1039.87 264.267 1038.4 259.067 1032.8C253.6 1026.8 252.4 1022.27 254.8 1015.47C258.267 1005.6 268.8 1001.47 279.333 1005.87ZM410.667 1206.93C418.4 1214.53 417.067 1228.27 408.133 1234.27C392.267 1244.93 372.933 1224 385.067 1209.33C392.133 1200.93 403.6 1199.87 410.667 1206.93ZM600.533 1332.8C605.733 1335.33 610.667 1343.2 610.667 1348.8C610.667 1353.6 606.533 1360.4 602 1363.47C597.733 1366.27 588.8 1366.13 584.533 1363.33C580 1360.4 576 1353.47 576 1348.67C576 1342.8 580.133 1335.87 585.467 1333.07C591.067 1330.13 594.533 1330 600.533 1332.8ZM802.8 1370C818.667 1378.27 812.267 1402.67 794.267 1402.67C787.733 1402.67 781.067 1397.73 778.667 1390.93C776.933 1386 776.933 1384.67 778.667 1379.73C782.267 1369.6 793.333 1365.2 802.8 1370Z" fill="#0D0D0D"/>
<path d="M1359.47 240.267C1356.93 242.667 1333.2 268.933 1306.53 298.533C1279.87 328.133 1253.6 357.2 1248.13 363.2C1227.73 385.733 1224 392.267 1224 406V413.2L1215.07 419.067C1201.47 427.867 1175.73 441.733 1152.27 452.8C1114.8 470.533 1116.93 469.2 1115.2 476C1114.4 479.333 1112.93 487.067 1112 493.333C1109.33 511.733 1101.6 549.333 1096.67 567.6C1092 585.2 1090.93 588.933 1080.4 620.8C1073.6 641.733 1073.6 644.533 1080 650.8C1085.47 656.4 1089.6 655.733 1108.27 646.8C1151.2 626.4 1190 612.8 1232.67 603.333C1250.93 599.333 1253.87 598.133 1255.6 594.133C1256.4 592.667 1260.13 581.2 1263.87 568.933C1275.33 532.133 1293.07 488 1297.73 485.067C1298.67 484.533 1302.27 484 1305.73 484C1319.87 484 1330 475.733 1364.8 436C1379.47 419.333 1438.27 353.467 1440 352C1443.47 348.8 1460 329.333 1461.33 326.8C1463.47 322.8 1462.13 316.4 1458.4 312.4C1456.4 310.133 1454 309.333 1450.27 309.333C1444.27 309.333 1441.73 311.6 1416.8 339.333C1409.6 347.333 1400.27 357.6 1396.13 362C1392 366.4 1378.8 381.067 1366.8 394.667C1354.8 408.267 1343.47 420.8 1341.87 422.667L1338.67 425.867L1326.4 413.867C1319.6 407.333 1306 394.533 1296.4 385.467C1286.67 376.4 1278.67 368.533 1278.67 368.133C1278.67 367.6 1286.67 358.533 1296.4 347.867C1306 337.2 1324.53 316.933 1337.33 302.667C1350.13 288.4 1364.93 272.267 1370.13 266.667C1381.6 254.4 1383.2 251.733 1382.13 245.867C1380.93 240 1375.73 236 1369.2 236C1365.07 236 1362.93 236.933 1359.47 240.267ZM1282.67 407.333C1290.4 414.667 1302.27 425.867 1309.07 432.133C1315.73 438.533 1321.33 444.267 1321.33 445.067C1321.33 446.933 1311.07 455.867 1307.2 457.333C1305.33 458.133 1302.27 458.267 1300.4 457.867C1298.4 457.333 1286.67 446.8 1273.2 433.6C1251.47 412.4 1249.33 409.867 1249.33 405.733C1249.33 400.267 1251.07 396.667 1256.4 391.067L1260.53 386.667L1264.53 390.267C1266.8 392.4 1274.93 400 1282.67 407.333ZM1247.73 444.267C1253.33 449.6 1262 457.867 1266.93 462.667L1276 471.333L1269.6 484C1261.07 500.8 1252.67 521.867 1242.53 552C1238 565.6 1234.13 576.8 1233.87 577.067C1233.73 577.333 1225.87 579.2 1216.53 581.467C1195.87 586.133 1166.4 595.333 1148.53 602.667C1134.93 608.267 1132.8 608.8 1133.6 606.8C1134.13 605.2 1146.4 591.333 1167.2 568.667L1184.4 550L1192.13 549.067C1204.93 547.6 1211.87 542.267 1214.67 532C1219.2 514.933 1203.07 498.267 1186.4 502.8C1173.6 506.133 1167.6 514.667 1168.27 528.533L1168.53 536.933L1148 559.467C1136.67 571.867 1124.8 584.933 1121.73 588.533C1115.73 595.333 1114.8 594.533 1117.87 585.6C1122.53 572.533 1131.73 529.867 1135.47 504.267L1137.87 488L1166 474.267C1192.4 461.333 1226 442.8 1233.2 437.2C1234.93 435.733 1236.67 434.667 1236.93 434.667C1237.2 434.667 1242.13 439.067 1247.73 444.267Z" fill="#0D0D0D"/>
<path d="M1253.2 635.067C1248 639.067 1248 638.933 1248 760.667C1248 888.933 1248 888.4 1240.67 899.867C1236 907.333 1226 915.6 1217.87 918.667C1210.67 921.333 1208 921.333 1072.93 921.333C915.6 921.333 920.267 921.067 898 932.4C873.067 945.067 857.6 963.6 849.2 990.667C846.667 998.8 846 1003.6 846.133 1016.67C846.133 1040.67 851.467 1056.93 864.8 1074.13C868 1078.53 892.8 1104.4 919.733 1131.73C950.4 1163.07 970.4 1184.4 973.333 1189.2C983.067 1204.93 983.2 1205.87 983.733 1259.33L984.133 1307.47L978.933 1309.73C970.8 1313.33 961.867 1322 957.867 1330.13C954.8 1336.4 954.267 1339.2 954.4 1348.67C954.4 1358.53 954.8 1360.67 958.8 1367.87C966.933 1383.33 979.867 1391.07 997.333 1390.93C1012.8 1390.93 1023.2 1385.47 1031.87 1372.8C1046.67 1351.33 1039.73 1323.6 1016.4 1310.4L1009.33 1306.4V1264.27L1009.47 1222L1044.67 1257.6C1081.47 1294.8 1082.53 1295.6 1091.07 1292.93C1097.47 1290.8 1100.53 1281.47 1096.93 1275.07C1096 1273.6 1059.47 1236.13 1015.6 1192L935.867 1111.87L994.933 1112.27C1052.27 1112.8 1054.27 1112.8 1062 1115.73C1066.4 1117.33 1073.07 1120.8 1076.67 1123.33C1080.4 1125.87 1099.07 1143.73 1118.4 1163.07L1153.33 1198.13L1151.2 1204.13C1148.13 1212.53 1148.4 1227.6 1151.87 1235.2C1157.73 1248.67 1167.6 1257.2 1181.2 1260.67C1195.07 1264.27 1210.8 1260 1221.73 1249.47C1228.4 1243.2 1231.47 1237.07 1233.33 1226.4C1235.07 1216.27 1233.2 1206.53 1227.33 1196.67C1223.33 1189.73 1212.93 1180.93 1205.73 1178.53C1198.4 1175.87 1181.6 1176.27 1176.53 1178.93L1172.4 1181.2L1138.27 1146.93L1104 1112.67L1112.93 1111.6C1117.87 1111.07 1125.73 1109.47 1130.67 1108C1146.8 1103.2 1154.8 1097.2 1182 1069.87C1215.47 1036.13 1217.87 1034.93 1252.67 1034.67C1263.73 1034.53 1273.73 1034.53 1274.93 1034.53C1276.27 1034.67 1278.4 1036.93 1279.87 1039.6C1284 1047.6 1291.2 1055.07 1298.8 1059.33C1305.33 1062.93 1307.07 1063.33 1318.67 1063.33C1333.47 1063.33 1339.73 1060.93 1349.2 1051.87C1357.73 1043.6 1361.87 1033.73 1361.87 1021.33C1361.73 1009.2 1358.8 1001.6 1350.53 992.667C1333.07 973.733 1305.33 973.333 1287.73 991.6C1285.07 994.4 1281.47 999.2 1279.73 1002.27L1276.67 1008L1252 1008.53C1223.33 1009.07 1216.53 1010.53 1201.73 1018.8C1193.33 1023.47 1186.93 1029.07 1167.47 1048.4C1154.27 1061.6 1140.27 1074.4 1136.4 1076.93C1122.4 1085.87 1122.8 1085.87 1070.13 1086.4C1043.87 1086.67 1021.87 1086.4 1021.33 1085.73C1020.67 1085.2 1033.07 1071.47 1048.8 1055.47C1064.53 1039.33 1077.73 1024.8 1078.13 1023.07C1080.53 1013.87 1074.8 1006.13 1065.73 1006.13C1061.47 1006.13 1058.53 1008.67 1026.93 1040.93C989.467 1078.93 984.667 1082.53 967.333 1085.33C911.867 1094.4 870 1061.87 872.267 1011.6C872.933 999.6 873.333 997.733 878.533 987.467C888.533 967.2 906.4 953.2 927.2 949.467C932.4 948.533 981.067 948 1072.53 948C1201.6 947.867 1210.53 947.733 1219.47 945.467C1224.67 944.133 1231.87 941.6 1235.47 939.867C1244.93 935.2 1260.13 919.733 1265.2 909.467C1273.33 893.333 1273.33 895.2 1273.33 762.267V641.067L1269.47 637.2C1266.4 634.267 1264.27 633.333 1260.4 633.333C1257.6 633.333 1254.4 634.133 1253.2 635.067ZM1330.8 1009.2C1335.2 1013.6 1336 1015.2 1336 1020.13C1336 1040 1312.4 1045.33 1303.07 1027.6C1299.47 1020.53 1303.87 1008.27 1311.2 1005.33C1312.67 1004.67 1316.67 1004.13 1319.87 1004.13C1324.8 1004 1326.4 1004.67 1330.8 1009.2ZM1202.67 1207.6C1211.73 1216.8 1210.67 1227.2 1200 1234.27C1189.07 1241.73 1174.67 1233.33 1174.67 1219.6C1174.67 1209.6 1181.6 1202.8 1191.87 1202.67C1196.8 1202.67 1198.4 1203.33 1202.67 1207.6ZM1006.67 1334.4C1011.87 1338.13 1015.07 1345.87 1014 1351.6C1012.8 1358 1006 1364.8 999.6 1366C989.6 1367.87 979.333 1359.2 979.333 1348.67C979.333 1334.67 995.467 1326.27 1006.67 1334.4Z" fill="#0D0D0D"/>
<path d="M935.067 645.067C919.467 650.667 902.933 665.2 884.933 689.067C873.867 703.867 872.8 707.067 877.2 714.133C880.267 719.067 885.333 720.8 890.4 718.4C892.267 717.467 897.467 711.867 901.867 706C911.867 692.667 932.133 672.8 939.333 669.333C950.267 664 953.6 665.867 967.2 684.533C983.2 706.533 993.067 714 1007.6 715.467C1022.93 716.933 1044.53 707.467 1059.6 692.667C1068.67 683.867 1070.13 679.6 1065.87 673.6C1063.73 670.4 1057.73 667.067 1055.07 667.467C1054.13 667.6 1052.53 667.733 1051.47 667.867C1050.53 667.867 1045.6 671.6 1040.67 676C1028.27 686.933 1019.33 691.2 1010.67 690.4C1002.53 689.6 1000.13 687.6 988 671.333C977.467 657.2 972.133 651.6 964.267 647.067C956.533 642.533 944.533 641.733 935.067 645.067Z" fill="url(#paint0_linear_2056_5)"/>
<defs>
<linearGradient id="paint0_linear_2056_5" x1="874.783" y1="681.246" x2="1068.16" y2="681.246" gradientUnits="userSpaceOnUse">
<stop offset="0.230769" stop-color="#0EEBCA"/>
<stop offset="1" stop-color="#2057B4"/>
</linearGradient>
</defs>
</svg>
