<?xml version="1.0" standalone="no"?>
<!DOCTYPE svg PUBLIC "-//W3C//DTD SVG 20010904//EN"
 "http://www.w3.org/TR/2001/REC-SVG-20010904/DTD/svg10.dtd">
<svg version="1.0" xmlns="http://www.w3.org/2000/svg"
 width="1024.000000pt" height="559.000000pt" viewBox="0 0 1024.000000 559.000000"
 preserveAspectRatio="xMidYMid meet">

<g transform="translate(0.000000,559.000000) scale(0.100000,-0.100000)"
fill="#000000" stroke="none">
<path d="M4103 4929 c-43 -27 -72 -77 -93 -158 l-17 -66 -91 -6 c-155 -12
-252 -72 -306 -189 -38 -84 -45 -167 -83 -1005 -20 -452 -23 -1346 -5 -1730 7
-148 17 -369 23 -490 13 -291 24 -332 117 -425 37 -37 80 -86 96 -110 37 -54
113 -102 196 -124 61 -17 141 -17 1165 -13 1144 5 1266 9 1370 48 114 43 196
132 236 259 19 58 22 104 29 415 18 714 9 1874 -19 2640 -8 190 -13 242 -30
297 -27 86 -75 155 -136 196 -29 20 -60 52 -76 81 -41 71 -111 118 -201 135
-33 6 -38 11 -38 34 0 38 -26 118 -50 158 -45 72 -135 95 -201 51 -43 -29 -88
-115 -96 -185 -3 -29 -10 -51 -16 -49 -6 2 -16 31 -23 66 -32 158 -145 235
-245 168 -42 -28 -86 -114 -95 -185 -3 -29 -10 -54 -14 -57 -4 -2 -14 31 -24
74 -26 125 -87 191 -174 191 -77 0 -151 -96 -167 -217 -4 -29 -11 -53 -15 -53
-4 0 -11 24 -15 53 -17 129 -89 217 -178 217 -75 0 -144 -86 -167 -207 -7 -35
-16 -61 -20 -58 -4 2 -10 27 -14 54 -17 126 -86 211 -171 211 -81 0 -140 -66
-171 -193 -9 -37 -20 -67 -24 -67 -4 0 -10 23 -13 52 -9 72 -51 153 -95 183
-46 31 -104 33 -149 4z m502 -125 c9 -20 20 -54 22 -75 l6 -39 -82 0 c-91 0
-89 -2 -66 78 18 59 57 97 85 82 9 -5 25 -26 35 -46z m1510 6 c8 -16 18 -49
21 -72 l6 -43 -81 -3 c-91 -4 -89 -7 -65 74 27 94 83 115 119 44z m-1899 16
c8 -14 21 -48 29 -75 l13 -51 -84 0 -84 0 6 28 c9 37 32 93 45 109 18 21 57
15 75 -11z m747 6 c24 -26 47 -87 47 -122 0 -29 -2 -30 -44 -30 -50 0 -69 -16
-64 -57 l3 -28 106 -3 107 -3 11 -77 c16 -110 40 -170 87 -219 37 -40 45 -43
92 -43 43 0 55 4 81 30 59 59 58 148 -1 209 -37 38 -91 43 -108 11 -14 -27 -4
-57 21 -65 29 -10 43 -43 30 -71 -14 -31 -24 -30 -54 6 -43 50 -52 94 -51 240
0 120 3 140 23 183 48 98 114 64 136 -70 l7 -43 -51 0 c-43 0 -53 -4 -66 -24
-13 -19 -14 -29 -5 -45 15 -28 47 -35 144 -29 l83 6 12 -89 c15 -108 58 -201
105 -230 18 -11 49 -19 75 -19 37 0 49 6 82 39 34 34 39 44 39 85 0 78 -51
146 -109 146 -56 0 -71 -59 -22 -85 40 -20 49 -52 23 -78 l-20 -20 -25 27
c-39 41 -52 106 -52 251 0 119 2 134 25 180 22 43 29 50 54 50 36 0 61 -37 75
-108 l8 -47 -38 0 c-76 0 -114 -34 -89 -80 10 -18 20 -20 123 -20 l113 0 11
-85 c13 -105 59 -207 106 -236 89 -54 197 10 197 116 0 67 -55 135 -109 135
-54 0 -71 -57 -26 -86 40 -26 48 -48 26 -75 l-18 -23 -25 27 c-30 32 -58 125
-58 191 l0 49 143 -5 c172 -5 222 -23 271 -97 28 -41 30 -51 37 -195 28 -505
48 -2514 30 -2912 -12 -274 -20 -314 -72 -377 -71 -86 -98 -90 -759 -107
-1232 -32 -1805 -34 -1877 -4 -39 17 -86 73 -102 122 -7 20 -16 129 -21 242
-5 113 -14 306 -21 430 -17 295 -17 1476 -1 1780 7 124 17 304 23 399 5 96 14
257 19 357 8 164 11 187 33 230 48 94 119 134 237 134 66 0 70 -1 70 -23 0
-19 -9 -26 -55 -40 -123 -38 -182 -104 -211 -236 -18 -82 -18 -122 6 -1261 5
-239 14 -730 20 -1090 6 -360 13 -665 16 -677 6 -32 50 -41 75 -17 18 18 18
36 9 529 -17 919 -32 1674 -39 2005 -4 179 -4 368 0 421 11 141 48 203 141
231 44 13 50 9 66 -47 45 -155 203 -199 267 -75 48 92 -33 211 -154 227 -31 4
-40 10 -44 29 l-4 25 141 -3 141 -3 6 -65 c16 -174 84 -280 179 -280 118 0
171 148 84 235 -23 23 -44 35 -62 35 -58 0 -71 -55 -22 -90 34 -24 40 -60 14
-81 -34 -28 -82 65 -100 194 l-6 48 143 -3 144 -3 6 -60 c18 -175 84 -275 182
-275 38 0 52 6 80 33 45 42 56 91 32 152 -21 55 -63 87 -107 83 -30 -3 -33 -6
-36 -38 -2 -30 2 -37 28 -52 25 -14 31 -23 28 -45 -2 -22 -8 -28 -28 -28 -36
0 -66 61 -81 163 -29 196 42 393 114 314z m-796 -398 c37 -24 45 -49 24 -75
-16 -20 -21 -22 -36 -9 -18 15 -38 51 -50 88 -6 22 -5 23 17 17 12 -4 33 -13
45 -21z m2423 -172 c15 -39 23 -96 30 -205 26 -396 38 -2033 21 -2772 l-7
-310 -28 -63 c-32 -70 -86 -124 -153 -154 -86 -38 -203 -42 -1368 -42 l-1120
-1 -57 28 c-32 16 -58 33 -58 39 0 7 58 9 178 6 377 -10 2117 31 2237 53 167
30 260 141 287 341 25 189 16 1834 -17 3003 l-5 180 20 -25 c11 -14 29 -49 40
-78z"/>
<path d="M5224 3400 c-100 -21 -196 -90 -248 -177 l-29 -48 -49 24 c-102 50
-223 34 -305 -42 -65 -59 -93 -124 -93 -214 l0 -73 -33 0 c-46 0 -149 -53
-186 -96 -91 -104 -110 -237 -51 -355 23 -45 90 -105 144 -130 57 -26 169 -26
237 1 28 12 52 19 53 18 1 -2 17 -27 36 -56 58 -93 171 -162 302 -184 179 -31
392 70 473 225 l28 53 56 -23 c67 -27 176 -31 240 -8 249 88 331 395 152 574
-59 59 -113 83 -197 89 l-72 5 -4 76 c-7 138 -84 252 -211 311 -69 33 -172 45
-243 30z m190 -76 c64 -22 147 -100 177 -166 22 -52 26 -101 17 -208 l-3 -35
95 0 c105 -1 139 -12 198 -69 59 -55 77 -100 77 -196 0 -74 -3 -91 -27 -130
-59 -101 -148 -154 -259 -155 -57 0 -76 5 -139 37 -79 41 -94 39 -105 -10 -10
-48 -63 -129 -108 -166 -97 -79 -224 -111 -349 -87 -119 24 -210 94 -265 206
-30 62 -44 66 -91 31 -109 -80 -265 -48 -337 68 -26 43 -30 58 -30 122 1 66 4
77 37 127 48 72 132 117 219 117 49 0 59 3 64 20 4 12 1 28 -7 37 -8 10 -13
41 -13 77 0 115 80 205 189 214 68 5 112 -9 165 -54 23 -20 48 -34 55 -31 7 3
21 27 30 53 29 87 98 158 190 196 53 22 159 23 220 2z"/>
<path d="M5334 2861 c-27 -12 -64 -58 -64 -81 0 -23 23 -42 42 -35 9 4 20 17
27 31 16 35 61 30 79 -9 18 -37 56 -34 60 5 7 58 -84 114 -144 89z"/>
<path d="M4822 2815 c-16 -13 -35 -39 -42 -56 -12 -28 -12 -33 5 -45 27 -20
31 -18 54 21 25 43 62 48 87 10 18 -28 51 -33 61 -9 15 39 -52 104 -109 104
-14 0 -40 -11 -56 -25z"/>
<path d="M5203 2575 c-39 -44 -86 -48 -131 -10 -34 29 -57 32 -66 9 -9 -22 9
-49 48 -73 82 -51 216 -3 216 77 0 16 -17 32 -34 32 -1 0 -16 -16 -33 -35z"/>
<path d="M5780 3320 c-13 -13 -20 -33 -20 -60 0 -41 30 -132 54 -165 14 -19
15 -19 65 5 105 49 163 129 126 170 -23 26 -49 25 -91 -1 l-34 -21 -6 31 c-7
31 -36 61 -61 61 -7 0 -22 -9 -33 -20z"/>
</g>
</svg>
